<?xml version="1.0" encoding="utf-8"?>
<!-- Generator: Adobe Illustrator 14.0.0, SVG Export Plug-In . SVG Version: 6.00 Build 43363)  -->
<!DOCTYPE svg PUBLIC "-//W3C//DTD SVG 1.1//EN" "http://www.w3.org/Graphics/SVG/1.1/DTD/svg11.dtd">
<svg version="1.1" id="Ebene_1" xmlns="http://www.w3.org/2000/svg" xmlns:xlink="http://www.w3.org/1999/xlink" x="0px" y="0px"
	 width="79.979px" height="79.979px" viewBox="0 0 79.979 79.979" enable-background="new 0 0 79.979 79.979" xml:space="preserve">
<path fill="#FFFFFF" d="M79.979,67.979c0,6.627-5.373,12-12,12H12c-6.627,0-12-5.373-12-12V12C0,5.373,5.373,0,12,0h55.979
	c6.627,0,12,5.373,12,12V67.979z"/>
<g>
	<line fill="none" stroke="#000000" stroke-width="2" x1="50.915" y1="16.37" x2="41.59" y2="16.37"/>
	<line fill="none" stroke="#000000" stroke-width="2" x1="46.253" y1="21.033" x2="46.253" y2="11.708"/>
	<path fill="none" stroke="#000000" stroke-width="3" d="M41.59,23.985c-5.26,0-6.11-3.836-7.958-7.958
		c-1.85-4.123-3.268-8.384-8.385-8.384"/>
	<rect x="7.763" y="23.985" fill="none" stroke="#000000" stroke-width="3" width="64.453" height="49.046"/>
	<path fill="none" stroke="#000000" stroke-width="3" d="M67.319,23.985c-5.26,0-6.11-3.835-7.959-7.958
		c-1.849-4.123-3.266-8.384-8.384-8.384H7.763v16.341"/>
	<g transform="matrix(1,0,0,-1,53.152542,1217.0847)">
		<path d="M-22.286,1158.159c0,0.345-0.126,0.644-0.38,0.896c-0.253,0.253-0.551,0.38-0.896,0.38c-0.346,0-0.646-0.127-0.898-0.38
			c-0.252-0.253-0.378-0.552-0.378-0.896c0-0.347,0.126-0.646,0.378-0.899c0.253-0.252,0.553-0.378,0.898-0.378
			c0.345,0,0.643,0.126,0.896,0.378C-22.412,1157.513-22.286,1157.812-22.286,1158.159z M-9.445,1166.533l-13.601-13.6
			c-0.49-0.492-1.089-0.737-1.793-0.737c-0.69,0-1.296,0.245-1.815,0.737l-2.113,2.153c-0.505,0.479-0.758,1.077-0.758,1.795
			c0,0.704,0.253,1.31,0.758,1.814l13.58,13.581c0.518-1.305,1.278-2.458,2.282-3.461
			C-11.901,1167.811-10.746,1167.052-9.445,1166.533z M3.197,1175.207c0-0.519-0.152-1.223-0.458-2.113
			c-0.625-1.781-1.719-3.228-3.28-4.337c-1.563-1.11-3.28-1.665-5.155-1.665c-2.459,0-4.562,0.874-6.312,2.622
			c-1.747,1.748-2.62,3.852-2.62,6.31c0,2.461,0.873,4.564,2.62,6.313c1.75,1.748,3.853,2.622,6.312,2.622
			c0.771,0,1.579-0.11,2.423-0.33c0.844-0.219,1.559-0.527,2.145-0.926c0.212-0.147,0.318-0.333,0.318-0.559
			c0-0.226-0.106-0.412-0.318-0.558l-5.843-3.37v-4.468l3.849-2.132c0.066,0.04,0.592,0.362,1.575,0.968
			c0.983,0.604,1.883,1.143,2.701,1.613c0.817,0.474,1.286,0.708,1.406,0.708c0.199,0,0.356-0.065,0.468-0.198
			C3.141,1175.572,3.197,1175.407,3.197,1175.207z"/>
	</g>
</g>
</svg>
